<?xml version="1.0" standalone="no"?>
<!DOCTYPE svg PUBLIC "-//W3C//DTD SVG 20010904//EN"
 "http://www.w3.org/TR/2001/REC-SVG-20010904/DTD/svg10.dtd">
<svg version="1.0" xmlns="http://www.w3.org/2000/svg"
 width="390.000000pt" height="121.000000pt" viewBox="0 0 390.000000 121.000000"
 preserveAspectRatio="xMidYMid meet">
<metadata>
Created by potrace 1.16, written by Peter Selinger 2001-2019
</metadata>
<g transform="translate(0.000000,121.000000) scale(0.100000,-0.100000)"
fill="#000000" stroke="none">
<path d="M860 1105 c-7 -8 -16 -30 -19 -48 -4 -17 -13 -32 -21 -33 -8 -1 -70
-2 -137 -2 -112 -2 -123 -4 -123 -20 0 -18 28 -19 633 -25 942 -10 1245 -9
1251 2 4 5 7 31 8 56 2 39 -2 51 -21 66 -22 18 -53 19 -791 19 -671 0 -769 -2
-780 -15z"/>
<path d="M413 853 c-7 -2 -13 -13 -13 -24 0 -18 11 -19 280 -19 154 0 280 -3
280 -7 0 -5 -3 -18 -6 -30 -6 -21 -12 -23 -79 -23 -67 0 -73 -2 -79 -22 -14
-55 -11 -58 60 -58 l65 0 -3 -27 -3 -28 -168 -3 c-142 -2 -169 -5 -174 -18 -9
-25 16 -34 100 -34 l77 0 0 -40 0 -40 66 0 c56 0 65 -2 60 -16 -3 -9 -6 -20
-6 -25 0 -5 -98 -9 -233 -9 -235 0 -263 -4 -250 -36 4 -11 38 -14 164 -14
l159 0 0 -29 c0 -16 8 -38 18 -50 l17 -21 757 -1 c721 -1 758 0 782 18 14 10
30 29 35 43 8 19 101 495 101 516 0 6 -1992 4 -2007 -3z m1142 -53 c58 -13 85
-49 85 -113 -1 -131 -75 -196 -226 -197 l-72 0 -11 -67 c-18 -107 -16 -103
-73 -103 -47 0 -50 1 -45 23 4 12 20 105 37 207 35 208 44 238 74 250 28 12
181 12 231 0z m590 -102 c4 -40 10 -90 13 -111 l7 -38 49 93 c65 122 70 128
123 128 23 0 43 -2 43 -4 0 -2 -34 -64 -76 -138 -184 -321 -181 -318 -276
-318 -42 0 -49 3 -44 16 3 9 6 24 6 35 0 15 7 19 34 19 35 0 66 21 66 44 0 7
-13 82 -30 167 -16 85 -30 160 -30 167 0 8 17 12 54 12 l54 0 7 -72z m-210
-12 c44 -19 50 -44 35 -138 -16 -102 -28 -135 -62 -173 -35 -40 -83 -58 -158
-59 -69 0 -107 22 -116 69 -15 81 39 147 133 164 92 18 108 25 108 46 0 22
-26 23 -142 9 -41 -4 -53 -3 -53 8 1 20 22 43 60 67 42 25 142 29 195 7z"/>
<path d="M1375 673 c-3 -27 -9 -58 -12 -70 -5 -22 -2 -23 50 -23 67 0 101 14
116 47 29 64 4 93 -84 93 l-63 0 -7 -47z"/>
<path d="M2576 795 c-119 -42 -195 -171 -183 -312 6 -73 35 -120 90 -147 41
-19 133 -21 188 -4 34 10 42 9 58 -6 21 -19 51 -15 71 10 10 11 9 18 -5 34
-17 19 -17 22 13 82 56 111 63 214 18 281 -45 68 -157 95 -250 62z m150 -96
c31 -29 40 -79 25 -144 -16 -69 -33 -94 -54 -76 -38 31 -96 -11 -64 -47 22
-25 13 -32 -40 -32 -36 0 -50 6 -74 29 -25 25 -29 37 -29 83 0 101 38 174 105
204 40 19 101 11 131 -17z"/>
<path d="M3545 788 c-2 -7 -20 -105 -39 -216 -43 -245 -43 -244 47 -240 62 3
62 3 65 36 3 26 0 32 -17 32 -11 0 -22 4 -25 9 -5 7 11 114 29 197 3 13 15 24
30 28 24 6 48 42 38 59 -2 4 -14 7 -27 7 -20 0 -22 5 -22 48 l1 47 -38 3 c-24
2 -39 -1 -42 -10z"/>
<path d="M2984 686 c-27 -12 -74 -63 -74 -80 0 -12 75 -6 115 10 46 17 95 7
95 -20 0 -21 -27 -33 -98 -45 -105 -17 -152 -60 -152 -140 0 -65 32 -91 112
-91 138 1 192 55 218 222 16 96 10 121 -34 142 -41 19 -139 20 -182 2z"/>
<path d="M3410 691 c-71 -15 -132 -64 -154 -126 -14 -37 -46 -227 -40 -236 8
-14 70 -11 81 4 5 6 15 46 22 87 21 128 29 148 61 165 16 8 40 15 54 15 21 0
26 6 34 43 13 61 12 62 -58 48z"/>
</g>
</svg>
